<?xml version="1.0" standalone="no"?>
<!DOCTYPE svg PUBLIC "-//W3C//DTD SVG 20010904//EN"
 "http://www.w3.org/TR/2001/REC-SVG-20010904/DTD/svg10.dtd">
<svg version="1.0" xmlns="http://www.w3.org/2000/svg"
 width="411.000000pt" height="476.000000pt" viewBox="0 0 411.000000 476.000000"
 preserveAspectRatio="xMidYMid meet">

<g transform="translate(0.000000,476.000000) scale(0.100000,-0.100000)"
fill="#000000" stroke="none">
<path d="M2087 4698 c-13 -29 -49 -87 -79 -129 -55 -76 -55 -77 -37 -96 19
-19 18 -20 -68 -108 -49 -49 -115 -106 -148 -128 -56 -36 -64 -39 -117 -34
-74 6 -86 -6 -48 -50 l30 -34 0 -184 0 -184 -72 -47 c-153 -97 -369 -348 -466
-539 -16 -33 -42 -77 -56 -98 -25 -36 -25 -37 -6 -49 31 -20 24 -26 -22 -21
-34 4 -49 0 -70 -17 -36 -28 -35 -45 1 -58 37 -13 63 -49 146 -202 160 -295
310 -478 472 -580 l72 -45 1 -192 0 -192 -30 -34 c-25 -29 -28 -36 -16 -46 10
-9 25 -10 49 -3 42 12 85 -2 152 -48 53 -37 205 -187 205 -203 0 -5 -7 -15
-15 -21 -13 -9 -7 -22 39 -83 29 -39 66 -97 82 -128 l27 -57 27 55 c14 30 50
87 79 127 41 56 50 75 41 85 -7 8 -8 20 -4 27 22 38 114 135 165 174 98 75
163 95 206 62 8 -6 15 -2 23 13 10 18 9 24 -4 31 -37 21 -46 62 -46 214 0 135
-1 146 -17 138 -10 -4 -50 -19 -89 -33 l-71 -25 -7 -85 c-4 -57 -14 -102 -30
-136 -21 -47 -260 -346 -275 -344 -12 1 -276 317 -288 345 -9 22 -12 140 -13
462 l0 434 29 27 c21 20 27 31 20 43 -7 13 -15 14 -47 5 -54 -14 -78 -5 -157
63 -78 67 -134 91 -160 70 -9 -8 -15 -25 -13 -39 4 -33 45 -42 65 -15 11 15
17 16 31 8 35 -22 41 -71 41 -334 l0 -255 -50 55 c-204 224 -287 534 -174 647
20 20 43 33 59 33 30 0 33 16 10 48 -18 27 -79 30 -124 7 -17 -9 -30 -11 -30
-6 0 6 -17 22 -38 37 l-37 26 42 -6 42 -6 6 37 c33 197 136 404 259 522 l36
35 0 -108 c0 -105 -1 -108 -29 -136 -23 -24 -26 -32 -17 -45 9 -13 16 -13 42
-4 36 14 71 7 107 -22 27 -20 478 -569 542 -658 91 -126 142 -286 147 -462 l3
-113 -85 -29 c-115 -40 -270 -48 -377 -20 l-73 19 0 -27 c0 -33 8 -36 123 -49
232 -27 491 37 686 169 124 85 254 225 404 439 46 64 64 82 83 82 29 0 31 20
4 45 -28 25 -107 24 -160 -3 l-40 -19 -47 24 c-89 46 -183 17 -183 -57 0 -34
26 -57 67 -62 l33 -3 -33 -76 c-39 -87 -118 -207 -177 -264 l-40 -39 0 87 c0
82 2 88 30 121 32 36 33 74 1 60 -9 -4 -34 -9 -57 -12 -33 -3 -46 1 -73 23
-61 52 -584 707 -623 780 -63 121 -68 156 -68 492 0 269 2 302 18 334 18 36
271 337 284 338 14 2 252 -296 272 -339 15 -34 21 -72 24 -157 2 -62 2 -113
-1 -113 -3 0 -36 7 -74 17 -75 18 -299 24 -395 10 -56 -8 -58 -10 -58 -38 0
-24 4 -29 18 -25 82 24 121 29 217 29 96 -1 122 -5 202 -31 222 -75 371 -209
484 -438 40 -81 52 -117 60 -185 14 -104 1 -152 -50 -186 l-34 -23 39 -16 c48
-20 126 -14 161 12 26 20 26 20 71 -3 56 -29 101 -29 136 -2 54 43 23 124 -48
121 -33 -1 -35 1 -41 39 -9 52 3 180 21 232 12 33 12 42 2 49 -24 14 -37 8
-69 -32 l-32 -40 -28 50 c-65 120 -192 254 -316 334 l-73 47 0 175 c0 182 7
220 46 242 13 7 14 13 4 31 -8 15 -15 19 -23 13 -61 -47 -193 26 -323 177 -59
68 -63 76 -48 92 14 15 11 22 -37 85 -29 38 -64 95 -80 127 l-27 58 -25 -53z
m-873 -1731 c37 -27 10 -107 -36 -107 -10 0 -30 11 -44 25 -25 26 -26 52 -2
83 14 16 59 15 82 -1z"/>
<path d="M2408 3484 l-3 -216 -28 -24 c-23 -19 -26 -27 -17 -43 9 -18 12 -18
40 -4 43 21 83 5 176 -72 84 -70 134 -89 161 -62 10 10 13 24 9 41 -5 21 -13
26 -36 26 -17 0 -33 -7 -39 -17 -8 -15 -11 -15 -26 -3 -36 30 -40 54 -45 270
l-5 215 -78 53 c-43 28 -85 52 -92 52 -11 0 -14 -41 -17 -216z"/>
<path d="M1865 650 c-99 -3 -174 -9 -167 -13 17 -11 17 -298 0 -315 -9 -9 26
-12 159 -12 94 0 179 -3 188 -6 13 -6 16 0 14 37 l-2 44 -124 -3 -123 -4 0 37
0 37 85 -3 85 -4 0 40 0 40 -85 -4 -85 -3 0 31 0 31 113 0 c76 0 117 -4 125
-12 10 -10 12 -2 11 40 -1 28 -5 51 -8 50 -3 -1 -87 -5 -186 -8z"/>
<path d="M3275 610 l0 -45 68 3 67 4 0 -119 c0 -79 -4 -123 -12 -131 -9 -9 5
-12 63 -11 40 0 68 3 62 6 -10 3 -13 39 -13 129 l0 124 59 0 c38 0 61 -4 64
-12 3 -7 6 12 6 42 l1 55 -183 0 -182 0 0 -45z"/>
<path d="M10 640 c0 -5 5 -10 10 -10 6 0 10 -43 10 -110 0 -133 12 -163 73
-191 57 -26 148 -25 203 1 61 30 74 64 74 192 0 68 4 108 12 116 9 9 -2 12
-52 12 l-65 0 3 -119 c4 -115 3 -120 -19 -131 -28 -16 -96 -15 -116 1 -12 10
-14 35 -11 131 l3 118 -62 0 c-35 0 -63 -4 -63 -10z"/>
<path d="M515 480 l0 -170 65 0 c36 0 60 4 53 8 -7 5 -13 45 -15 110 -2 56 -2
102 -1 102 5 0 158 -162 172 -182 12 -17 12 -21 0 -29 -9 -5 14 -8 61 -8 41 0
69 3 63 6 -18 7 -18 304 -1 321 9 9 -3 12 -57 12 -54 0 -66 -3 -57 -12 7 -7
12 -42 12 -87 l0 -76 -70 71 c-48 50 -68 77 -64 88 5 14 -5 16 -77 16 l-84 0
0 -170z"/>
<path d="M1028 638 c17 -17 17 -299 0 -316 -9 -9 6 -12 68 -12 58 1 74 3 62
11 -16 9 -18 27 -18 156 0 127 2 147 18 159 15 11 6 13 -62 14 -62 0 -77 -3
-68 -12z"/>
<path d="M1240 645 c0 -3 6 -16 14 -28 8 -12 34 -81 59 -153 34 -98 43 -134
34 -143 -8 -8 10 -11 70 -11 72 0 81 2 77 18 -4 15 70 211 111 295 l13 27 -65
0 c-51 0 -63 -3 -55 -12 7 -9 0 -38 -25 -100 -19 -49 -38 -88 -42 -88 -4 0
-21 40 -38 89 -23 65 -28 92 -20 100 8 8 -8 11 -61 11 -40 0 -72 -2 -72 -5z"/>
<path d="M2168 638 c8 -8 12 -58 12 -158 0 -100 -4 -150 -12 -158 -9 -9 3 -12
57 -12 54 0 66 3 57 12 -7 7 -12 36 -12 65 l0 53 38 0 c34 0 39 -4 65 -51 16
-27 26 -57 23 -65 -4 -11 8 -14 71 -14 63 0 74 2 61 13 -8 6 -30 33 -47 59
l-32 48 42 40 c39 37 41 42 36 81 -11 82 -51 99 -241 99 -101 0 -127 -3 -118
-12z m260 -86 c6 -40 -14 -52 -89 -52 l-69 0 0 40 0 41 78 -3 c72 -3 77 -5 80
-26z"/>
<path d="M2702 644 c-36 -9 -92 -68 -92 -98 0 -63 41 -90 154 -102 79 -8 107
-24 87 -48 -10 -12 -31 -16 -77 -16 -68 0 -112 12 -131 37 -10 13 -14 7 -26
-33 l-14 -49 66 -12 c173 -31 270 -3 287 85 5 26 1 36 -23 60 -29 29 -100 52
-162 52 -15 0 -36 6 -46 14 -16 12 -17 16 -6 30 24 29 162 17 182 -16 5 -8 49
70 49 86 0 5 -227 14 -248 10z"/>
<path d="M3058 638 c8 -8 12 -58 12 -158 0 -100 -4 -150 -12 -158 -9 -9 4 -12
62 -12 58 0 71 3 62 12 -17 17 -17 299 0 316 9 9 -4 12 -62 12 -58 0 -71 -3
-62 -12z"/>
<path d="M3771 545 l81 -106 -4 -64 -3 -65 60 0 60 0 -3 64 c-4 64 -4 64 59
158 34 51 70 98 78 105 13 10 1 12 -62 13 -51 0 -76 -4 -72 -10 7 -12 -53
-112 -64 -106 -3 2 -21 24 -38 49 -24 33 -29 47 -21 55 9 9 -8 12 -70 12 l-81
0 80 -105z"/>
<path d="M880 70 c0 -66 15 -98 22 -48 2 16 11 24 28 26 34 5 50 20 50 48 0
27 -26 44 -69 44 l-31 0 0 -70z m70 35 c16 -19 4 -35 -26 -35 -17 0 -24 6 -24
18 0 34 28 43 50 17z"/>
<path d="M1070 120 c-41 -41 -12 -120 45 -120 31 0 75 41 75 70 0 29 -44 70
-75 70 -14 0 -34 -9 -45 -20z m74 -16 c43 -42 -10 -109 -54 -69 -24 22 -25 42
-3 67 20 22 37 23 57 2z"/>
<path d="M1260 70 c0 -40 4 -70 10 -70 6 0 10 8 10 19 0 10 6 24 14 30 11 9
18 6 36 -19 21 -29 40 -39 40 -21 0 6 -11 23 -24 38 l-25 28 26 27 c38 40 19
48 -20 10 -41 -40 -47 -40 -47 -2 0 17 -4 30 -10 30 -6 0 -10 -30 -10 -70z"/>
<path d="M1444 126 c-3 -7 -4 -38 -2 -67 l3 -54 44 -3 c24 -2 49 2 54 7 8 8
-1 11 -31 11 -35 0 -42 3 -42 20 0 16 7 20 35 20 19 0 35 5 35 10 0 6 -16 10
-35 10 -28 0 -35 4 -35 20 0 17 7 20 41 20 24 0 38 4 34 10 -10 16 -95 12
-101 -4z"/>
<path d="M1620 70 c0 -40 4 -70 10 -70 6 0 10 11 10 25 0 15 6 25 14 25 8 0
23 -11 34 -25 27 -34 50 -34 28 0 -15 23 -15 27 -1 41 8 8 15 22 15 29 0 21
-41 45 -77 45 l-33 0 0 -70z m69 41 c21 -13 5 -41 -24 -41 -18 0 -25 5 -25 18
0 31 21 41 49 23z"/>
<path d="M1922 70 c-22 -50 -27 -70 -17 -70 7 0 15 6 18 14 3 7 19 16 36 18
23 3 34 -1 45 -16 8 -12 17 -18 20 -15 9 9 -50 139 -62 139 -5 0 -23 -31 -40
-70z m58 -2 c0 -5 -9 -8 -20 -8 -18 0 -19 3 -9 21 9 17 13 19 20 8 5 -8 9 -17
9 -21z"/>
<path d="M2110 120 c-57 -57 10 -147 81 -109 28 15 13 31 -16 17 -21 -9 -29
-8 -45 7 -11 10 -20 26 -20 35 0 9 9 25 20 35 16 15 24 16 45 7 29 -14 44 2
16 17 -30 17 -59 13 -81 -9z"/>
<path d="M2299 74 c-30 -65 -31 -98 -3 -59 17 23 62 22 81 -2 6 -8 16 -13 21
-12 12 5 -47 139 -60 139 -5 0 -23 -30 -39 -66z m46 -12 c-22 -5 -27 1 -19 23
7 17 8 17 21 -1 12 -17 12 -19 -2 -22z"/>
<path d="M2480 70 l0 -73 42 6 c102 14 102 120 0 134 l-42 6 0 -73z m64 40
c50 -19 27 -90 -28 -90 -12 0 -16 11 -16 50 0 53 3 56 44 40z"/>
<path d="M2670 70 l0 -70 50 0 c58 0 68 17 13 22 -49 4 -53 32 -5 36 17 2 32
7 32 12 0 5 -15 10 -32 12 -48 4 -44 32 5 36 55 5 45 22 -13 22 l-50 0 0 -70z"/>
<path d="M2844 126 c-10 -25 1 -119 14 -124 8 -2 12 11 12 45 l1 48 17 -27 c9
-16 19 -28 22 -28 3 0 13 12 22 28 l17 27 1 -48 c0 -34 4 -47 13 -44 16 5 17
129 0 134 -6 2 -19 -10 -29 -26 -10 -17 -21 -31 -24 -31 -3 0 -14 14 -23 30
-20 32 -35 38 -43 16z"/>
<path d="M3050 134 c0 -3 12 -25 26 -49 14 -24 24 -51 22 -61 -2 -9 3 -19 10
-21 8 -3 12 6 12 28 0 19 10 46 26 66 34 45 21 58 -14 15 l-27 -33 -18 31
c-16 26 -37 40 -37 24z"/>
<path d="M0 60 c0 -6 123 -10 350 -10 227 0 350 4 350 10 0 6 -123 10 -350 10
-227 0 -350 -4 -350 -10z"/>
<path d="M3330 60 c0 -6 137 -10 390 -10 253 0 390 4 390 10 0 6 -137 10 -390
10 -253 0 -390 -4 -390 -10z"/>
</g>
</svg>
