<?xml version="1.0" standalone="no"?>
<!DOCTYPE svg PUBLIC "-//W3C//DTD SVG 20010904//EN"
 "http://www.w3.org/TR/2001/REC-SVG-20010904/DTD/svg10.dtd">
<svg version="1.0" xmlns="http://www.w3.org/2000/svg"
 width="232.000000pt" height="368.000000pt" viewBox="0 0 232.000000 368.000000"
 preserveAspectRatio="xMidYMid meet">

<g transform="translate(0.000000,368.000000) scale(0.100000,-0.100000)"
fill="#000000" stroke="none">
<path d="M1187 3618 c-13 -29 -49 -87 -79 -129 -55 -76 -55 -77 -37 -96 19
-19 18 -20 -68 -108 -49 -49 -115 -106 -148 -128 -56 -36 -64 -39 -117 -34
-74 6 -86 -6 -48 -50 l30 -34 0 -184 0 -184 -72 -47 c-153 -97 -369 -348 -466
-539 -16 -33 -42 -77 -56 -98 -25 -36 -25 -37 -6 -49 31 -20 24 -26 -22 -21
-34 4 -49 0 -70 -17 -36 -28 -35 -45 1 -58 37 -13 63 -49 146 -202 160 -295
310 -478 472 -580 l72 -45 1 -192 0 -192 -30 -34 c-25 -29 -28 -36 -16 -46 10
-9 25 -10 49 -3 42 12 85 -2 152 -48 53 -37 205 -187 205 -203 0 -5 -7 -15
-15 -21 -13 -9 -7 -22 39 -83 29 -39 66 -97 82 -128 l27 -57 27 55 c14 30 50
87 79 127 41 56 50 75 41 85 -7 8 -8 20 -4 27 22 38 114 135 165 174 98 75
163 95 206 62 8 -6 15 -2 23 13 10 18 9 24 -4 31 -37 21 -46 62 -46 214 0 135
-1 146 -17 138 -10 -4 -50 -19 -89 -33 l-71 -25 -7 -85 c-4 -57 -14 -102 -30
-136 -21 -47 -260 -346 -275 -344 -12 1 -276 317 -288 345 -9 22 -12 140 -13
462 l0 434 29 27 c21 20 27 31 20 43 -7 13 -15 14 -47 5 -54 -14 -78 -5 -157
63 -78 67 -134 91 -160 70 -9 -8 -15 -25 -13 -39 4 -33 45 -42 65 -15 11 15
17 16 31 8 35 -22 41 -71 41 -334 l0 -255 -50 55 c-204 224 -287 534 -174 647
20 20 43 33 59 33 30 0 33 16 10 48 -18 27 -79 30 -124 7 -17 -9 -30 -11 -30
-6 0 6 -17 22 -38 37 l-37 26 42 -6 42 -6 6 37 c33 197 136 404 259 522 l36
35 0 -108 c0 -105 -1 -108 -29 -136 -23 -24 -26 -32 -17 -45 9 -13 16 -13 42
-4 36 14 71 7 107 -22 27 -20 478 -569 542 -658 91 -126 142 -286 147 -462 l3
-113 -85 -29 c-115 -40 -270 -48 -377 -20 l-73 19 0 -27 c0 -33 8 -36 123 -49
232 -27 491 37 686 169 124 85 254 225 404 439 46 64 64 82 83 82 29 0 31 20
4 45 -28 25 -107 24 -160 -3 l-40 -19 -47 24 c-89 46 -183 17 -183 -57 0 -34
26 -57 67 -62 l33 -3 -33 -76 c-39 -87 -118 -207 -177 -264 l-40 -39 0 87 c0
82 2 88 30 121 32 36 33 74 1 60 -9 -4 -34 -9 -57 -12 -33 -3 -46 1 -73 23
-61 52 -584 707 -623 780 -63 121 -68 156 -68 492 0 269 2 302 18 334 18 36
271 337 284 338 14 2 252 -296 272 -339 15 -34 21 -72 24 -157 2 -62 2 -113
-1 -113 -3 0 -36 7 -74 17 -75 18 -299 24 -395 10 -56 -8 -58 -10 -58 -38 0
-24 4 -29 18 -25 82 24 121 29 217 29 96 -1 122 -5 202 -31 222 -75 371 -209
484 -438 40 -81 52 -117 60 -185 14 -104 1 -152 -50 -186 l-34 -23 39 -16 c48
-20 126 -14 161 12 26 20 26 20 71 -3 56 -29 101 -29 136 -2 54 43 23 124 -48
121 -33 -1 -35 1 -41 39 -9 52 3 180 21 232 12 33 12 42 2 49 -24 14 -37 8
-69 -32 l-32 -40 -28 50 c-65 120 -192 254 -316 334 l-73 47 0 175 c0 182 7
220 46 242 13 7 14 13 4 31 -8 15 -15 19 -23 13 -61 -47 -193 26 -323 177 -59
68 -63 76 -48 92 14 15 11 22 -37 85 -29 38 -64 95 -80 127 l-27 58 -25 -53z
m-873 -1731 c37 -27 10 -107 -36 -107 -10 0 -30 11 -44 25 -25 26 -26 52 -2
83 14 16 59 15 82 -1z"/>
<path d="M1508 2404 l-3 -216 -28 -24 c-23 -19 -26 -27 -17 -43 9 -18 12 -18
40 -4 43 21 83 5 176 -72 84 -70 134 -89 161 -62 10 10 13 24 9 41 -5 21 -13
26 -36 26 -17 0 -33 -7 -39 -17 -8 -15 -11 -15 -26 -3 -36 30 -40 54 -45 270
l-5 215 -78 53 c-43 28 -85 52 -92 52 -11 0 -14 -41 -17 -216z"/>
</g>
</svg>
